<mxfile host="app.diagrams.net" modified="2023-07-14T08:17:04.334Z" agent="Mozilla/5.0 (Windows NT 10.0; Win64; x64) AppleWebKit/537.36 (KHTML, like Gecko) Chrome/114.0.0.0 Safari/537.36" etag="bhpHMxqCnOvGud8TIVH0" version="21.4.0" type="device">
  <diagram name="Page-1" id="8HV1L3QnSuIUt_d2trgj">
    <mxGraphModel dx="880" dy="476" grid="1" gridSize="10" guides="1" tooltips="1" connect="1" arrows="1" fold="1" page="1" pageScale="1" pageWidth="850" pageHeight="1100" math="0" shadow="0">
      <root>
        <mxCell id="0" />
        <mxCell id="1" parent="0" />
        <mxCell id="6NuJaMXCHpm1tS5XXJQx-10" value="" style="edgeStyle=orthogonalEdgeStyle;rounded=0;orthogonalLoop=1;jettySize=auto;html=1;" edge="1" parent="1" source="6NuJaMXCHpm1tS5XXJQx-1" target="6NuJaMXCHpm1tS5XXJQx-2">
          <mxGeometry relative="1" as="geometry" />
        </mxCell>
        <mxCell id="6NuJaMXCHpm1tS5XXJQx-1" value="START" style="ellipse;whiteSpace=wrap;html=1;fillColor=#dae8fc;strokeColor=#6c8ebf;" vertex="1" parent="1">
          <mxGeometry x="20" y="90" width="120" height="80" as="geometry" />
        </mxCell>
        <mxCell id="6NuJaMXCHpm1tS5XXJQx-11" value="" style="edgeStyle=orthogonalEdgeStyle;rounded=0;orthogonalLoop=1;jettySize=auto;html=1;" edge="1" parent="1" source="6NuJaMXCHpm1tS5XXJQx-2" target="6NuJaMXCHpm1tS5XXJQx-7">
          <mxGeometry relative="1" as="geometry" />
        </mxCell>
        <mxCell id="6NuJaMXCHpm1tS5XXJQx-2" value="Request new employees to input their details" style="rounded=0;whiteSpace=wrap;html=1;fillColor=#dae8fc;strokeColor=#6c8ebf;" vertex="1" parent="1">
          <mxGeometry x="180" y="100" width="180" height="60" as="geometry" />
        </mxCell>
        <mxCell id="6NuJaMXCHpm1tS5XXJQx-5" value="" style="endArrow=none;dashed=1;html=1;rounded=0;exitX=0;exitY=1;exitDx=0;exitDy=0;" edge="1" parent="1" source="6NuJaMXCHpm1tS5XXJQx-2">
          <mxGeometry width="50" height="50" relative="1" as="geometry">
            <mxPoint x="400" y="270" as="sourcePoint" />
            <mxPoint x="360" y="164" as="targetPoint" />
            <Array as="points">
              <mxPoint x="180" y="190" />
              <mxPoint x="360" y="190" />
            </Array>
          </mxGeometry>
        </mxCell>
        <mxCell id="6NuJaMXCHpm1tS5XXJQx-6" value="&lt;font style=&quot;font-size: 14px;&quot;&gt;&amp;nbsp; &amp;nbsp; &amp;nbsp; &amp;nbsp; &amp;nbsp; &amp;nbsp; &amp;nbsp; &amp;nbsp; &amp;nbsp; &amp;nbsp; internal app&lt;/font&gt;" style="text;html=1;align=center;verticalAlign=middle;resizable=0;points=[];autosize=1;strokeColor=none;fillColor=none;" vertex="1" parent="1">
          <mxGeometry x="135" y="158" width="170" height="30" as="geometry" />
        </mxCell>
        <mxCell id="6NuJaMXCHpm1tS5XXJQx-16" value="" style="edgeStyle=orthogonalEdgeStyle;rounded=0;orthogonalLoop=1;jettySize=auto;html=1;" edge="1" parent="1" source="6NuJaMXCHpm1tS5XXJQx-7" target="6NuJaMXCHpm1tS5XXJQx-14">
          <mxGeometry relative="1" as="geometry" />
        </mxCell>
        <mxCell id="6NuJaMXCHpm1tS5XXJQx-7" value="Open&amp;nbsp; HR on-boarding process form" style="rounded=0;whiteSpace=wrap;html=1;fillColor=#dae8fc;strokeColor=#6c8ebf;" vertex="1" parent="1">
          <mxGeometry x="410" y="100" width="140" height="60" as="geometry" />
        </mxCell>
        <mxCell id="6NuJaMXCHpm1tS5XXJQx-12" value="" style="endArrow=none;dashed=1;html=1;rounded=0;entryX=0;entryY=1;entryDx=0;entryDy=0;exitX=1;exitY=1;exitDx=0;exitDy=0;" edge="1" parent="1" source="6NuJaMXCHpm1tS5XXJQx-7" target="6NuJaMXCHpm1tS5XXJQx-7">
          <mxGeometry width="50" height="50" relative="1" as="geometry">
            <mxPoint x="400" y="280" as="sourcePoint" />
            <mxPoint x="450" y="230" as="targetPoint" />
            <Array as="points">
              <mxPoint x="550" y="190" />
              <mxPoint x="410" y="190" />
              <mxPoint x="410" y="200" />
              <mxPoint x="410" y="180" />
              <mxPoint x="410" y="190" />
            </Array>
          </mxGeometry>
        </mxCell>
        <mxCell id="6NuJaMXCHpm1tS5XXJQx-13" value="&lt;font style=&quot;font-size: 14px;&quot;&gt;&amp;nbsp; &amp;nbsp; &amp;nbsp; &amp;nbsp; &amp;nbsp; &amp;nbsp; &amp;nbsp; &amp;nbsp; &amp;nbsp; &amp;nbsp; &amp;nbsp; &amp;nbsp; &amp;nbsp; &amp;nbsp; Browser&lt;/font&gt;" style="text;html=1;align=center;verticalAlign=middle;resizable=0;points=[];autosize=1;strokeColor=none;fillColor=none;" vertex="1" parent="1">
          <mxGeometry x="340" y="158" width="180" height="30" as="geometry" />
        </mxCell>
        <mxCell id="6NuJaMXCHpm1tS5XXJQx-14" value="Generate employee ID and email using data provided by employee" style="rounded=0;whiteSpace=wrap;html=1;fillColor=#dae8fc;strokeColor=#6c8ebf;" vertex="1" parent="1">
          <mxGeometry x="580" y="100" width="200" height="60" as="geometry" />
        </mxCell>
        <mxCell id="6NuJaMXCHpm1tS5XXJQx-15" value="" style="endArrow=none;dashed=1;html=1;rounded=0;entryX=0;entryY=1;entryDx=0;entryDy=0;exitX=1;exitY=1;exitDx=0;exitDy=0;" edge="1" parent="1" source="6NuJaMXCHpm1tS5XXJQx-14" target="6NuJaMXCHpm1tS5XXJQx-14">
          <mxGeometry width="50" height="50" relative="1" as="geometry">
            <mxPoint x="400" y="280" as="sourcePoint" />
            <mxPoint x="450" y="230" as="targetPoint" />
            <Array as="points">
              <mxPoint x="780" y="190" />
              <mxPoint x="580" y="190" />
            </Array>
          </mxGeometry>
        </mxCell>
        <mxCell id="6NuJaMXCHpm1tS5XXJQx-19" value="" style="edgeStyle=orthogonalEdgeStyle;rounded=0;orthogonalLoop=1;jettySize=auto;html=1;" edge="1" parent="1" source="6NuJaMXCHpm1tS5XXJQx-17" target="6NuJaMXCHpm1tS5XXJQx-18">
          <mxGeometry relative="1" as="geometry" />
        </mxCell>
        <mxCell id="6NuJaMXCHpm1tS5XXJQx-17" value="&lt;font style=&quot;font-size: 14px;&quot;&gt;internal app+ browser&lt;/font&gt;" style="text;html=1;align=center;verticalAlign=middle;resizable=0;points=[];autosize=1;strokeColor=none;fillColor=none;" vertex="1" parent="1">
          <mxGeometry x="595" y="158" width="160" height="30" as="geometry" />
        </mxCell>
        <mxCell id="6NuJaMXCHpm1tS5XXJQx-18" value="Open notepad and save employee ID and email under file name &quot;Employee Details&quot;" style="rounded=0;whiteSpace=wrap;html=1;fillColor=#dae8fc;strokeColor=#6c8ebf;" vertex="1" parent="1">
          <mxGeometry x="580" y="220" width="190" height="60" as="geometry" />
        </mxCell>
        <mxCell id="6NuJaMXCHpm1tS5XXJQx-20" value="" style="endArrow=none;dashed=1;html=1;rounded=0;entryX=0;entryY=1;entryDx=0;entryDy=0;exitX=1;exitY=1;exitDx=0;exitDy=0;" edge="1" parent="1" source="6NuJaMXCHpm1tS5XXJQx-18" target="6NuJaMXCHpm1tS5XXJQx-18">
          <mxGeometry width="50" height="50" relative="1" as="geometry">
            <mxPoint x="770" y="310" as="sourcePoint" />
            <mxPoint x="450" y="230" as="targetPoint" />
            <Array as="points">
              <mxPoint x="770" y="310" />
              <mxPoint x="580" y="310" />
            </Array>
          </mxGeometry>
        </mxCell>
        <mxCell id="6NuJaMXCHpm1tS5XXJQx-23" value="" style="edgeStyle=orthogonalEdgeStyle;rounded=0;orthogonalLoop=1;jettySize=auto;html=1;" edge="1" parent="1" source="6NuJaMXCHpm1tS5XXJQx-21" target="6NuJaMXCHpm1tS5XXJQx-22">
          <mxGeometry relative="1" as="geometry" />
        </mxCell>
        <mxCell id="6NuJaMXCHpm1tS5XXJQx-21" value="&lt;font style=&quot;font-size: 14px;&quot;&gt;internal app + notepad&lt;/font&gt;" style="text;html=1;align=center;verticalAlign=middle;resizable=0;points=[];autosize=1;strokeColor=none;fillColor=none;" vertex="1" parent="1">
          <mxGeometry x="595" y="280" width="160" height="30" as="geometry" />
        </mxCell>
        <mxCell id="6NuJaMXCHpm1tS5XXJQx-22" value="END" style="ellipse;whiteSpace=wrap;html=1;fillColor=#dae8fc;strokeColor=#6c8ebf;" vertex="1" parent="1">
          <mxGeometry x="610" y="340" width="120" height="60" as="geometry" />
        </mxCell>
      </root>
    </mxGraphModel>
  </diagram>
</mxfile>
